<svg width="512" height="512" viewBox="0 0 512 512" fill="none" xmlns="http://www.w3.org/2000/svg">
<path d="M78.2349 254.283L117.202 280.488L37.1444 417.395C30.9117 434.432 32.6053 440.247 45.0604 445.463H163.801L202.722 380.081C305.994 347.141 350.385 315.085 409.198 237.431L439.873 264.838C447.044 264.857 449.444 263.285 451.087 257.904L459.333 144.311C457.896 139.733 456.299 138.397 451.087 139.688L345.54 173.04C341.563 176.391 341.186 178.511 345.54 182.946L376.215 210.023C315.559 287.06 271.961 316.451 176.046 342.749L138.063 406.585H89.8463L153.414 299.994L187.067 324.031C190.718 324.192 191.954 323.269 192.774 319.893L188.641 204.239C187.696 199.022 185.898 197.785 179.589 199.707L78.2349 249.752C76.8535 251.927 77.1124 252.843 78.2349 254.283Z" fill="url(#paint0_linear_10_2)"/>
<path d="M243.351 70.7496L179.908 179.501C199.779 180.927 206.368 187.447 211.724 207.11L255.212 133.489L319.75 242.606L348.86 211.655L267.427 70.7496C256.497 63.4686 251.31 63.8702 243.351 70.7496Z" fill="url(#paint1_linear_10_2)"/>
<path d="M397.086 285.219L367.526 317.089L419.825 403.309C420.957 405.837 420.594 406.63 417.835 406.724C415.076 406.818 370.368 406.724 370.368 406.724L333.987 341.845L299.595 366.033L350.472 446.562H463.312C477.31 441.727 480.986 436.773 476.671 422.09L397.086 285.219Z" fill="url(#paint2_linear_10_2)"/>
<defs>
<linearGradient id="paint0_linear_10_2" x1="38.2611" y1="446.562" x2="478.731" y2="119.536" gradientUnits="userSpaceOnUse">
<stop stop-color="#00FF87"/>
<stop offset="1" stop-color="#4FACFE"/>
</linearGradient>
<linearGradient id="paint1_linear_10_2" x1="38.2611" y1="446.562" x2="478.731" y2="119.536" gradientUnits="userSpaceOnUse">
<stop stop-color="#00FF87"/>
<stop offset="1" stop-color="#4FACFE"/>
</linearGradient>
<linearGradient id="paint2_linear_10_2" x1="38.2611" y1="446.562" x2="478.731" y2="119.536" gradientUnits="userSpaceOnUse">
<stop stop-color="#00FF87"/>
<stop offset="1" stop-color="#4FACFE"/>
</linearGradient>
</defs>
</svg>
