<svg width="24" height="24" viewBox="0 0 24 24" fill="none" xmlns="http://www.w3.org/2000/svg">
<path d="M4.21473 11.8653L5.92832 13.0163L2.40776 19.03C2.13367 19.7784 2.20815 20.0338 2.75587 20.2629H7.97752L9.68906 17.391C14.2305 15.9441 16.1826 14.536 18.7689 11.125L20.1179 12.3289C20.4332 12.3297 20.5388 12.2607 20.611 12.0243L20.9736 7.03473C20.9104 6.83363 20.8402 6.77495 20.611 6.83166L15.9696 8.29662C15.7947 8.44385 15.7781 8.53698 15.9696 8.73176L17.3185 9.92114C14.6511 13.305 12.7339 14.596 8.516 15.7511L6.84569 18.5552H4.72534L7.52074 13.8731L9.00065 14.929C9.16122 14.9361 9.21555 14.8955 9.25163 14.7472L9.06989 9.66705C9.02832 9.43792 8.94926 9.38359 8.67178 9.468L4.21473 11.6662C4.15398 11.7618 4.16536 11.802 4.21473 11.8653Z" fill="url(#paint0_linear_5_2)"/>
<path d="M11.4757 3.8035L8.68583 8.58046C9.55968 8.64309 9.84943 8.92949 10.085 9.79318L11.9974 6.55935L14.8354 11.3523L16.1156 9.99284L12.5345 3.8035C12.0538 3.48368 11.8257 3.50132 11.4757 3.8035Z" fill="url(#paint1_linear_5_2)"/>
<path d="M18.2363 13.2241L16.9364 14.624L19.2362 18.4113C19.286 18.5223 19.2701 18.5572 19.1487 18.5613C19.0274 18.5654 17.0614 18.5613 17.0614 18.5613L15.4615 15.7115L13.9491 16.7739L16.1864 20.3112H21.1486C21.7642 20.0988 21.9258 19.8812 21.7361 19.2362L18.2363 13.2241Z" fill="url(#paint2_linear_5_2)"/>
<defs>
<linearGradient id="paint0_linear_5_2" x1="2.45687" y1="20.3112" x2="21.811" y2="5.92538" gradientUnits="userSpaceOnUse">
<stop stop-color="#00FF87"/>
<stop offset="1" stop-color="#4FACFE"/>
</linearGradient>
<linearGradient id="paint1_linear_5_2" x1="2.45687" y1="20.3112" x2="21.811" y2="5.92538" gradientUnits="userSpaceOnUse">
<stop stop-color="#00FF87"/>
<stop offset="1" stop-color="#4FACFE"/>
</linearGradient>
<linearGradient id="paint2_linear_5_2" x1="2.45687" y1="20.3112" x2="21.811" y2="5.92538" gradientUnits="userSpaceOnUse">
<stop stop-color="#00FF87"/>
<stop offset="1" stop-color="#4FACFE"/>
</linearGradient>
</defs>
</svg>
